<svg width="46" height="45" viewBox="0 0 46 45" fill="none" xmlns="http://www.w3.org/2000/svg">
<path d="M36.3768 31.0359C35.7156 31.4569 34.2579 32.2472 33.7582 32.4591C33.5559 32.5448 33.4685 32.6109 34.6376 32.0266C35.8066 31.4424 38.2373 30.212 39.8197 29.4581C42.0341 28.403 43.1025 28.1268 43.5281 28.1104C43.6266 28.1066 43.3535 28.4241 41.2042 29.6732C39.0549 30.9222 35.0036 33.1729 32.8265 34.3624C30.6495 35.5519 30.4694 35.6119 30.3766 35.5828C30.2839 35.5537 30.2839 35.4336 30.3589 35.2818C30.584 34.9499 31.3988 34.2242 32.5492 33.3457C33.0393 33.0074 33.3394 32.8874 33.6486 32.6728" stroke="black" stroke-width="2" stroke-linecap="round"/>
<path d="M1.00024 27.5C1.00024 27.741 1.30352 27.3638 1.38036 28.0781C1.42571 28.4997 1.66727 28.9116 1.91007 29.3067C2.13924 29.6796 2.39478 30.0338 2.65259 30.398C2.94392 30.8095 3.30416 31.125 3.63745 31.3987C3.97571 31.6765 4.3645 31.8834 4.87966 32.3527C5.24165 32.6824 5.69765 33.0038 6.18326 33.3839C6.61637 33.7229 7.09265 33.8841 7.54734 34.1419C8.06742 34.4368 8.51674 34.8535 8.91187 35.0517C9.3785 35.2858 9.8217 35.5519 9.89809 35.6578C9.92611 35.6967 9.76441 35.7338 9.65756 35.7342C9.25923 35.7359 8.73499 35.3118 8.18754 34.8571C7.70794 34.4588 7.45913 34.2496 7.35273 34.2037C6.78498 33.9587 9.14967 35.2772 9.8358 35.6424C10.357 35.9197 10.9412 36.0066 11.4272 36.2185C11.7766 36.3708 12.1552 36.4012 12.3375 36.4163C12.5995 36.4378 11.7341 36.6431 11.3699 36.81C10.9726 36.9921 10.461 36.4031 10.0213 36.0539C9.19934 35.401 13.913 35.7956 14.2772 35.5987C14.6296 35.4082 15.0643 35.1299 15.7313 34.4638C16.1079 34.0878 16.3683 33.644 16.7175 33.4617C16.8976 33.3677 16.9758 33.1284 17.3518 32.992C18.8501 32.4485 19.6694 33.0365 20.2787 33.112C20.4006 33.1271 20.5206 33.1275 20.6274 33.1425C21.2958 33.2363 17.767 33.1584 17.1454 33.1125C16.7225 33.0812 16.432 32.9456 16.2201 33.0056C15.7587 33.1363 15.7645 33.7622 15.5526 34.2774C15.3819 34.6924 14.9788 35.1554 14.5528 35.4759C14.2326 35.7168 13.8257 35.8247 13.3715 36.0516C12.5846 36.4446 11.9487 36.9123 11.6418 37.4002C11.4108 37.7675 11.1576 38.2182 10.8998 38.5674C10.6445 38.9131 10.2791 39.0985 9.8699 39.5213C9.2944 40.116 9.06601 40.4916 8.6877 40.7499C8.03086 41.1983 7.73285 41.5829 7.36864 42.0076C7.03239 42.3997 6.75942 42.8031 6.50024 43C5.43164 43.8118 10.0627 42.8888 10.5483 42.7674C11.1425 42.6188 11.8214 42.616 13.6197 42.6001C14.5209 42.5921 15.368 42.736 17.6683 42.8424C19.6337 42.9333 23.447 42.8579 25.4554 42.8429C27.7689 42.8256 28.3704 42.676 28.8273 42.5555C29.4125 42.4012 29.4344 41.2846 29.4353 39.1685C29.4356 38.3424 29.2834 37.0778 29.2684 35.5628C29.2589 34.6047 28.9506 34.1296 28.7992 33.7804C28.6327 33.3965 28.194 33.1893 27.8297 32.871C27.5061 32.5882 27.0427 32.4618 26.6476 32.3095C26.2893 32.1714 25.6204 32.1271 25.0866 32.3986C24.4643 32.7151 24.0108 33.3384 23.6316 33.4908C22.8011 33.8244 21.4645 33.5221 21.0853 33.4157C20.6593 33.2962 20.1023 33.3093 19.6453 33.4753C19.1931 33.6395 18.6163 34.186 17.9489 34.9735C17.4753 35.5322 17.0995 35.9447 16.7353 36.4144C16.3251 36.9434 15.8882 37.7599 15.6131 38.3096C15.4093 38.7168 15.0988 39.0967 14.7196 39.5368C14.2381 40.0957 13.9767 40.4916 13.5679 40.7954C13.1107 41.1351 12.7654 41.5829 12.0988 41.8716C11.7327 42.0302 10.6201 42.1304 9.24061 42.0853C8.78936 42.0706 8.85139 41.9503 8.92732 41.8739C9.25051 41.5488 9.84989 41.4338 11.6791 40.8599C13.0692 40.4239 13.3983 39.7078 13.7016 39.2976C14.0014 38.8922 14.1858 37.9836 14.46 36.6477C14.4975 36.4651 14.3713 36.5213 14.28 36.6272C13.1561 37.93 11.4295 39.6459 11.429 39.389C11.4277 38.6125 12.7581 37.9508 15.0115 36.6941C16.7477 35.7258 17.1877 35.7347 17.2941 35.7642C17.7973 35.904 16.6757 36.9123 15.9032 37.9286C15.745 38.1366 15.6445 38.2182 15.5381 38.2796C15.4317 38.341 15.3116 38.371 15.2348 38.3264C15.1279 38.1618 15.097 37.8581 15.127 37.5252C15.157 37.3725 15.2171 37.2524 15.2789 37.1288" stroke="black" stroke-width="2" stroke-linecap="round"/>
<path d="M1.5623 9.5V5C1.72896 4.16667 2.5623 2.3 4.5623 1.5C6.5623 0.7 20.3956 0.5 27.0623 0.5C31.5623 1 41.2623 4.9 44.0623 16.5C46.8623 28.1 40.8956 36.3333 37.5623 39C35.729 40.6667 30.8623 44 26.0623 44C21.2623 44 9.72896 44 4.5623 44L10.5623 38C6.89563 36 -0.237705 31 0.562295 27C1.3623 23 1.00024 26.5 2.56226 28.5C4.56228 30.5 8.96233 34.6 10.5623 35C12.5623 35.5 13.5623 36 15.0623 33C16.5623 30 27.1102 33.9096 25.0623 31.5C23.7445 29.9495 18.0002 26.5 18.0002 26C18.0002 25.5 25.0002 33 29.5002 29C29.5002 29 35.3956 20.3333 37.0623 17" stroke="black"/>
<path d="M1.50024 9.5L9.00024 2.5V8L14.0002 4.5V12C21.1669 16.1667 16.5002 18.5 37.0002 17" stroke="black" stroke-linecap="round"/>
<path d="M2.3658 6.75535C2.24485 6.84538 2.12391 7.20823 1.92703 7.57243C1.87839 7.66241 1.85109 7.75386 1.88065 7.77023C2.18219 7.93723 2.48584 7.3028 2.72865 6.86312C2.84035 6.66084 3.15151 6.3334 3.44024 6.08969C3.95228 5.65747 2.73137 7.02635 2.54813 7.39056C2.46218 7.56139 2.42673 7.78478 2.44128 7.89163C2.51936 8.46499 3.18243 6.96997 3.53163 6.65032C3.86389 6.34618 4.27369 5.96965 4.80386 5.57452C5.28129 5.2187 5.69778 4.84747 6.4853 4.22682C7.10176 3.74098 7.45653 3.36154 7.82073 3.05826C8.20814 2.73567 8.72966 2.36122 9.00339 2.02793C9.0731 1.94305 9.12433 1.84651 9.11024 1.77012C9.09614 1.69373 9.00611 1.63371 8.89972 1.6178C8.42885 1.54737 7.76572 1.99383 7.26283 2.38895C6.81361 2.74191 6.45984 3.17603 5.95968 3.72211C5.531 4.19016 5.00483 4.75289 4.61061 5.19258C4.13871 5.71891 3.54982 5.96601 3.18561 6.20882C2.83464 6.4428 2.54859 6.54256 2.42719 6.58848C2.13646 6.69846 2.90961 5.87871 3.5289 5.15257C4.89712 3.54828 5.60684 3.4834 6.12292 2.96823C6.29634 2.79511 6.33617 2.5731 6.4121 2.39168C6.44792 2.30611 6.398 2.21026 6.32253 2.19389C5.64327 2.04658 4.6138 3.17603 4.07999 3.48067C3.59428 3.75786 3.12605 4.20726 2.68591 4.69197C2.3776 5.03148 2.12391 5.29943 2.09299 5.34581C1.74618 5.86602 2.78776 4.33276 3.1074 3.92263C3.43099 3.50744 3.5771 3.05962 3.75943 2.6795C3.95874 2.26398 4.36553 2.05748 4.53195 2.02657C4.61232 2.01163 4.66836 2.1757 4.65426 2.31257C4.54915 3.33316 3.12605 4.20726 2.57996 4.93341C2.29532 5.31191 2.27486 5.75322 2.28987 5.98102C2.30887 6.26944 2.6077 5.1221 2.78957 4.48417C2.95684 3.89749 3.03147 3.39246 3.1988 2.95277C3.37087 2.5006 3.819 2.17934 4.37918 1.95154C5.57191 1.46651 7.54564 1.96473 8.45548 2.01156C8.92395 2.03567 9.39533 1.72465 9.98734 1.58733C10.1219 1.55611 10.2447 1.57187 10.3065 1.6469C10.6439 2.05624 10.0355 2.72133 9.97461 3.38791C9.89615 4.24627 9.76272 5.02571 9.7168 5.4654C9.70559 5.57271 9.67178 5.66228 9.65632 5.76867C9.62369 5.99328 9.64086 4.73834 9.64086 3.11191C9.64086 1.37883 9.54992 5.65773 9.60994 6.55256C9.6281 6.82331 9.79 6.69715 9.88185 6.5753C10.2917 6.03152 10.9704 5.33308 11.6847 5.02844C12.1101 4.84702 12.7582 4.51464 13.292 4.20999C13.7286 3.96084 14.2151 3.72529 14.446 3.45157C15.1181 2.65512 12.4363 4.47826 11.6588 4.73925C11.5278 4.78323 11.4014 4.75471 11.3096 4.66468C10.8448 4.20908 10.763 3.66527 10.5662 3.30107C10.2989 2.8066 10.0956 2.17934 10.0505 1.98246C9.8344 1.03714 9.91277 5.17849 10.0942 5.17939C10.6921 5.18239 10.5493 4.42188 10.7158 4.37596C10.7906 4.35529 10.8522 4.48008 10.9131 4.46644C11.5979 4.31313 10.9158 2.69587 10.7326 2.21026C10.6882 2.09274 10.6721 1.96837 10.6566 1.84651C10.6412 1.72465 10.6412 1.60461 10.8212 1.54277C12.109 1.1005 13.7567 1.75375 14.6547 1.82923C14.8524 1.84585 15.0626 1.84469 15.1858 1.8897C15.309 1.93472 15.3391 2.02475 15.3245 2.14615C15.2574 2.70571 14.2551 3.26514 12.3608 4.16089C11.9662 4.3475 11.707 4.30002 11.7183 4.16498C11.8242 2.90764 13.4876 2.63403 13.9136 2.33075C14.0033 2.26691 14.095 2.23936 14.1864 2.2089C14.2778 2.17843 14.3678 2.14842 14.3092 2.238C13.7575 3.08047 12.7355 3.29879 12.3113 3.39018C12.1606 3.42265 12.1271 3.30152 12.1417 3.19512C12.2087 2.70471 12.6109 2.39214 12.7028 1.99747C12.8332 1.43684 11.5833 2.1466 11.1882 2.31393C10.9949 2.39577 10.854 2.57129 10.763 2.78272C10.7135 2.8978 10.7321 3.05417 10.8672 3.13147C11.0022 3.20876 11.2723 3.20876 11.4714 3.14874C12.083 2.96444 12.2763 2.33212 12.7159 1.86151C12.906 1.65806 13.0956 1.51186 13.277 1.40591C13.4469 1.30674 14.0914 1.29906 14.8048 1.32907C15.2337 1.34711 14.0077 1.72283 13.3107 1.75375C12.9455 1.76995 14.155 1.51186 14.7766 1.43547C14.9141 1.41857 15.0044 1.51004 15.0508 1.81104C15.1791 2.64367 15.1272 3.29879 15.1726 4.08041C15.2128 4.771 15.1881 6.06241 15.1881 6.59212C15.1881 6.946 15.0062 5.27306 14.9307 4.62149C14.9011 4.36583 14.9153 3.97446 14.9003 3.84851C14.8499 3.4259 14.7043 4.99479 14.6275 5.4804C14.589 5.72343 14.5515 6.65623 14.5365 7.95892C14.5291 8.60293 14.4606 9.44622 14.5056 10.522C14.5339 11.1982 15.2463 11.4223 15.6114 11.7556C15.9122 12.0302 16.0356 12.4826 16.3544 12.8473C16.5879 13.1145 15.3445 12.0934 14.6898 11.5919C14.1652 11.1901 14.5206 10.1219 14.5665 8.94287C14.6092 7.84845 14.7025 6.87903 14.7484 6.37751C14.8078 5.72875 14.8844 8.05577 14.9453 9.17568C14.9769 9.757 15.0972 10.1492 15.1422 10.256C15.3547 10.7606 15.43 8.91241 15.4459 7.54834C15.4491 7.2715 15.4009 7.15185 15.3854 7.55516C15.4 9.9973 15.4909 10.392 15.5664 10.5734C15.6119 10.6648 15.6719 10.7548 15.8247 10.8476" stroke="black" stroke-linecap="round"/>
<path d="M24.4637 5.39135C24.8839 5.39135 26.1506 5.45137 28.6724 5.76738C30.1543 5.95309 32.0043 6.47352 33.0228 6.73542C34.0414 6.99732 34.1614 7.05734 34.1782 7.11827C34.195 7.1792 34.105 7.23922 33.0533 7.25513C32.0016 7.27105 29.991 7.24104 28.31 7.13555C26.629 7.03006 25.3386 6.85 24.5088 6.68222C22.7802 6.33271 22.434 5.51503 21.9197 4.78798C21.4727 4.1559 21.0099 3.99818 20.6457 3.83085C20.2451 3.64681 19.7077 3.51257 19.0102 3.33069C18.3896 3.16888 17.3487 3.20883 16.6444 3.11835C16.2256 3.06454 15.9165 2.75505 15.8401 2.58864C15.7604 2.41506 17.4779 2.39039 19.6145 2.37539C20.6787 2.36791 21.1572 2.14849 22.1562 2.10257C22.4643 2.08841 23.7244 2.02664 25.5427 2.01163C26.706 2.00203 27.5538 2.05574 28.1445 2.38903C28.6055 2.6492 28.9179 2.96512 29.2821 3.13245C29.6827 3.31649 30.1001 3.45073 30.5398 3.58714C30.9485 3.71392 31.3423 3.90542 31.6174 4.01182C32.0144 4.16537 30.7712 3.78538 29.9237 3.48301C29.0886 3.18511 28.7397 2.96694 28.3004 2.86054C28.138 2.82119 27.8939 2.84508 27.8453 2.8901C27.3638 3.33555 29.3708 3.54167 30.0237 3.72354C30.1876 3.7692 30.3711 3.75446 30.4338 3.70945C30.4966 3.66443 30.4366 3.57441 30.3456 3.51302C29.9626 3.25445 29.5581 3.0888 29.2989 2.84599C29.2534 2.8033 29.4326 2.72504 29.5695 2.70913C30.1369 2.64314 30.7348 3.11608 31.7202 3.67671C32.1656 3.93017 32.5245 4.23826 33.312 4.94894C33.7893 5.37963 34.1923 5.57141 34.5715 5.84513C35.0006 6.15483 35.4654 6.38985 35.8297 6.66358C36.1796 6.92656 36.4667 7.08826 36.5431 7.11918C36.9721 7.29284 36.0147 6.45351 35.726 6.13523C35.4062 5.78269 34.7434 5.48411 34.2714 5.22539C33.8587 4.99913 33.4084 4.7566 32.9378 4.34693C32.6247 4.07438 32.1353 4.0582 31.4232 4.01227C30.887 3.97769 30.3474 3.87632 29.2271 3.8304C28.55 3.80264 27.8321 3.66353 27.1792 3.57304C26.8299 3.52464 25.4159 3.48165 23.4766 3.49665C22.6165 3.50331 22.3131 3.57259 21.9957 3.6026C21.6384 3.63638 20.2324 3.75446 18.3231 3.81448C17.642 3.8359 17.5543 3.99454 17.4629 4.1164C17.0987 4.60201 16.7358 5.02578 16.5226 5.40499C16.2686 5.85656 16.1884 6.268 16.0374 6.79817C15.7423 7.83459 16.0974 9.25987 16.1879 10.1188C16.2292 10.511 16.5812 10.9058 17.005 11.3915C17.4149 11.8612 17.9435 12.239 18.3845 12.7555C18.7821 13.2211 19.1275 13.483 19.4608 13.6813C19.8298 13.9008 20.1878 14.2105 20.552 14.4088C20.9159 14.6068 21.2791 14.7871 21.7338 14.9999C22.2348 15.2344 23.0651 15.3327 23.734 15.485C24.3614 15.6279 25.0367 15.6365 25.5227 15.7429C25.8762 15.8202 26.1907 15.7883 27.0173 15.8338C29.1312 15.9501 30.6766 15.8192 30.9035 15.7588C31.3164 15.6487 32.0371 15.5764 32.6464 15.486C33.1351 15.4134 33.5557 15.3345 35.2031 15.2886C35.8642 15.2702 36.2839 15.1527 37.101 15.1067C37.2851 15.0917 37.3752 15.0617 37.4966 15.0313C37.618 15.0008 37.768 14.9708 37.9226 14.9399" stroke="black" stroke-width="3" stroke-linecap="round"/>
<path d="M17.0978 8.57419C17.0978 8.90611 17.0378 9.45083 16.9314 10.0115C16.7756 10.8322 17.0669 11.2096 17.2938 11.5738C17.5497 11.9846 17.7944 12.3008 17.9458 12.665C18.1852 13.241 19.0366 13.483 19.2944 13.8322C19.5522 14.1814 20.006 14.2724 20.3702 14.4843C20.7348 14.6964 21.0973 14.818 21.4765 14.9544C21.5853 14.9936 21.7029 15.0599 21.8098 15.0608C21.9166 15.0617 22.0066 15.0017 22.023 13.5603C22.0394 12.119 21.9794 9.29806 21.9484 8.05493C21.9175 6.8118 21.9175 7.23194 21.8575 8.00355C21.7109 9.88842 21.5538 11.2396 21.5538 11.4979C21.5538 11.5461 21.5538 11.426 21.4187 10.3739C21.2837 9.3217 21.0136 7.34107 20.8745 6.15569C20.7353 4.97031 20.7353 4.6402 20.7503 4.53016C20.7566 4.48447 20.8563 4.90392 20.9017 5.80785C21.0559 8.87166 21.0081 9.60179 21.0836 9.87779C21.2674 10.5498 20.0169 6.77543 19.4776 5.9338C18.8469 4.94941 19.3421 8.32775 19.1303 8.79881C18.8236 9.48046 18.6456 6.7627 18.3268 5.1099C18.2408 4.66407 18.0708 4.21825 17.9935 4.1214C17.8752 3.97313 18.1263 6.04338 18.4446 8.40641C18.6617 10.0187 18.7638 10.633 18.9461 10.9681C18.9787 11.028 19.0966 10.9695 19.173 10.909C19.7314 10.467 20.0369 8.97432 20.2488 8.35003C20.8402 6.60767 20.6135 11.8752 20.7494 12.3599C20.8033 12.5521 20.9154 12.6046 21.0518 12.4704C22.0502 11.4887 21.9775 10.122 22.2799 9.59179C22.4359 9.31827 22.7041 9.06071 23.0065 8.84837C23.1412 8.75379 23.3089 8.81608 23.5212 9.23667C24.6326 11.438 24.4929 12.5409 24.6302 13.2852C24.6879 13.5982 24.9758 12.6473 25.551 10.8449C25.7741 10.1455 25.9461 9.9128 26.1134 10.5544C26.6685 12.6828 26.6763 14.3933 26.7518 14.4247C27.0184 14.5355 26.9491 12.4091 27.0546 10.2402C27.0736 9.84991 27.6439 11.4715 28.0981 13.4112C28.2586 14.0965 28.3723 14.1505 28.5837 13.5212C29.2282 11.6031 29.5554 10.001 29.7068 9.6077C29.7763 9.42736 29.7982 9.27441 29.8137 9.1371C29.8954 8.411 29.5572 12.5109 29.3758 13.117C29.3086 13.3417 29.1944 13.363 28.5328 12.5682C27.8712 11.7734 26.6408 10.1529 25.917 9.22803C25.0371 8.10388 24.7375 7.69754 24.6611 7.3638C24.6304 7.22943 25.1285 7.57205 25.882 8.05493C27.2188 8.9117 28.7024 9.3608 29.6855 9.61816C31.1119 9.9916 31.5852 10.0892 31.9335 10.2402C32.0853 10.306 32.1317 10.4512 32.1626 10.573C32.3042 11.131 31.8625 12.4154 31.6184 13.4517C31.5741 13.6395 31.4678 13.7849 31.4065 13.9223C31.3451 14.0596 31.3151 14.1796 31.2996 13.9864C31.2435 13.285 31.3142 12.5173 31.5397 11.7034C31.9604 10.1852 32.6464 9.0016 32.9642 8.59192C33.0721 8.45283 33.192 8.57237 33.2834 8.7688C33.5064 9.24809 33.6476 10.7449 33.8291 12.6382C33.9599 14.0037 34.3451 14.3024 34.4811 14.4238C34.5424 14.4785 34.6471 14.4252 34.7384 14.3047C34.9663 14.0042 35.1327 13.1575 35.3295 11.978C35.6364 10.1398 35.5583 9.57633 35.6483 9.5736C37.3341 9.52251 36.8887 12.2372 37.4188 12.9197C37.5934 13.1444 37.6789 13.032 37.7099 12.9106C37.7408 12.7892 37.7408 12.6391 37.3506 11.8116C36.2395 9.45471 35.4664 7.90761 35.6928 7.95217C36.0914 8.0306 36.4349 8.72242 37.1588 9.58269C39.0071 11.7793 39.2558 11.938 39.3317 11.9694C40.009 12.2492 38.6847 9.7964 38.2118 8.78926C37.9988 8.33545 37.9836 7.8485 37.9681 7.63571C37.9432 7.29266 38.3755 8.35957 39.2076 9.69045C39.7004 10.4786 40.1033 10.9968 40.3921 11.4824C40.6677 11.946 41.1619 12.901 41.4688 13.6649C41.6478 14.1104 41.8021 14.6034 41.9085 15.1954C41.9239 15.4528 41.9839 15.6965 42.0749 16.1184C42.1058 16.4203 42.1058 16.9005 42.0149 17.4861" stroke="black" stroke-width="3" stroke-linecap="round"/>
<path d="M17.1371 34.509C17.0374 34.6274 16.9377 34.7518 16.7285 34.9397C16.8993 34.6656 17.0057 34.5343 17.04 34.4781C17.0558 34.4529 17.0681 34.4344 17.0809 34.4153" stroke="black" stroke-width="3" stroke-linecap="round"/>
<path d="M6.71875 33.9656C6.75604 33.9779 6.8308 34.0402 6.8872 34.1463C6.91213 34.1901 6.93105 34.2277 6.9466 34.2651C6.95597 34.2839 6.96834 34.3025 6.98108 34.3403" stroke="black" stroke-width="3" stroke-linecap="round"/>
<path d="M12.2089 39.793C12.0218 39.7743 11.9223 39.799 11.7537 39.8553C11.7029 39.8722 11.6479 39.8987 11.443 39.964C11.2381 40.0293 10.8857 40.1345 10.6855 40.1979C10.4854 40.2613 10.4483 40.2799 10.3914 40.3177" stroke="black" stroke-width="3" stroke-linecap="round"/>
<circle cx="12.0002" cy="15" r="0.5" fill="black"/>
<path d="M22.594 36.7586C22.5475 36.8051 22.2792 37.0502 21.3854 37.7284C20.7527 38.2085 19.6887 38.872 19.2365 39.1617C18.7843 39.4513 18.9589 39.3233 19.8225 38.8676C20.6862 38.4119 22.2337 37.6323 23.2927 37.1725C24.3517 36.7128 24.8753 36.5964 25.2439 36.5365C25.6125 36.4765 25.8103 36.4765 25.8541 36.5173C25.8978 36.558 25.7814 36.6394 24.5114 37.0188C23.2414 37.3982 20.8212 38.073 19.5512 38.4207C18.2812 38.7683 18.2346 38.7683 18.2281 38.7276C18.2083 38.6038 18.5484 38.1957 19.1108 37.5625C19.399 37.2379 19.7663 36.9758 20.2428 36.6574C20.7193 36.339 21.3127 35.99 21.6417 35.8043C22.0111 35.5959 22.1001 35.5718 22.1064 35.5249C22.1614 35.1187 21.0687 35.4075 20.4633 35.331C20.1011 35.2852 19.7864 35.2072 19.5517 35.2188C19.3606 35.2283 19.1284 35.3708 18.876 35.5468C18.7017 35.6682 18.6687 35.8179 18.6627 35.9059C18.6598 35.9476 18.6916 35.9822 18.7676 36.0002C18.8436 36.0182 18.9715 36.0182 19.404 35.9425C19.8364 35.8669 20.5695 35.7156 21.0693 35.6261C21.5691 35.5365 21.8134 35.5133 22.6258 35.3558C23.4381 35.1984 24.8111 34.9075 25.5417 34.746C26.3216 34.5736 26.4133 34.5024 26.5012 34.432C26.6736 34.2942 26.8124 34.0796 27.1003 33.7863C27.2575 33.6261 27.2482 33.3286 27.2131 33.1217C27.1816 32.936 27.1424 32.7751 27.0546 32.593C26.9642 32.4054 26.9781 32.2462 26.8843 32.0757C26.778 31.8825 26.6142 31.7758 26.473 31.711C26.4376 31.6933 26.4027 31.6701 26.3672 31.6522C26.3318 31.6344 26.2969 31.6228 26.2609 31.5756" stroke="black" stroke-width="3" stroke-linecap="round"/>
<path d="M14.928 40.435C14.9851 40.435 15.1003 40.4636 16.002 40.5498C16.8162 40.6276 18.3614 40.6931 19.3709 40.7659C20.8112 40.8697 21.3652 40.9976 21.4884 41.084C21.757 41.2723 20.648 41.2579 20.1641 41.2579C20.0283 41.2579 20.8152 41.1427 21.6857 41.0418C22.1641 40.9863 22.9953 40.9842 23.4723 40.9623C24.0499 40.9358 24.2382 40.9114 24.6897 40.8757C25.056 40.8467 25.6985 40.7685 26.1513 40.7317C27.1668 40.6491 27.4568 40.6516 27.7171 40.5725C28.0439 40.4733 28.3091 40.3779 28.5614 40.2482C28.8275 40.1113 28.9449 39.8582 29.0025 39.7001C29.0882 39.4647 29.0895 39.2376 29.0609 38.9435C29.0028 38.346 28.9163 37.8807 28.8663 37.515C28.689 36.2191 28.5412 36.1047 28.4693 36.0398C28.4333 36.0072 28.3689 36.0177 28.318 36.0391C28.0615 36.1472 27.7201 36.5209 26.8789 37.24C26.4118 37.6393 25.6691 38.3848 25.1931 38.8246C24.5604 39.4093 24.2975 39.5541 24.0892 39.626C23.9535 39.6729 23.7523 39.7265 22.4487 39.7703C21.1452 39.814 18.7442 39.8426 17.4359 39.843C15.9844 39.8435 15.7946 39.7711 15.7082 39.7423C15.6646 39.7278 15.6218 39.7135 15.5997 39.649C15.5776 39.5845 15.5776 39.4701 15.6062 39.3898C15.6348 39.3095 15.6919 39.2666 17.5078 39.2231C19.3237 39.1795 22.8965 39.1367 25.3302 39.1432C27.7639 39.1497 28.9501 39.2068 29.554 39.272C30.1579 39.3372 30.1436 39.4086 30.1077 39.4812C29.8293 40.0429 29.1475 40.5641 29.0895 40.7304C29.0223 40.9231 29.6066 40.8681 29.9043 40.9112C29.9567 40.9188 29.9981 40.94 30.0273 40.9688C30.0871 41.0276 30.0856 41.199 30.1427 41.3579C30.2615 41.6882 30.7768 41.186 31.188 41.0779C31.8142 40.9134 32.0188 40.8395 32.2141 40.7386C32.4325 40.6258 32.6684 40.5225 32.8997 40.4209C33.1427 40.3143 33.3614 40.2046 33.5926 40.0459C33.8126 39.895 33.9391 39.6997 34.1485 39.4615C34.2973 39.2921 34.5731 39.0223 34.8054 38.7469C34.9774 38.543 35.1231 38.4004 35.2818 38.2629C35.471 38.0991 35.6567 37.9093 35.7729 37.7649C35.8835 37.6276 36.0897 37.4624 36.2708 37.3102C36.4511 37.1585 36.6241 36.9852 36.8335 36.8124C37.0431 36.6394 37.2738 36.3797 37.562 36.0482C37.6699 35.9241 37.7917 35.7327 37.8651 35.6656C37.9385 35.5984 37.9528 35.6556 37.9602 35.7422C37.9908 36.1026 37.8956 36.3624 37.6585 36.745C37.308 37.3107 37.0589 37.4026 36.562 37.6768C36.1328 37.9135 35.1716 38.3537 34.6779 38.6583C34.0215 39.0634 33.7823 39.1644 33.307 39.4017C32.9647 39.5726 32.5849 39.7127 32.2962 39.7778C32.1956 39.8006 32.1791 39.743 32.9649 38.7848C33.7507 37.8266 35.337 35.9544 36.1042 35.0186C36.8714 34.0827 36.7714 34.1399 35.7623 34.9696C34.7533 35.7994 32.8382 37.4 31.6016 38.389C30.3649 39.3779 29.8647 39.7066 29.4355 39.9617C29.0064 40.2168 28.6634 40.3883 28.4224 40.4909C28.1814 40.5935 28.0527 40.6221 28.7796 39.6579C29.5066 38.6936 31.0929 36.7357 31.8744 35.7271C32.6559 34.7184 32.5844 34.7184 32.4762 34.7542C32.3679 34.7899 32.225 34.8614 31.8369 35.0911C31.4489 35.3208 30.8201 35.7067 30.3032 35.9841C29.4204 36.4579 28.9314 36.595 28.7946 36.6166C28.7296 36.6269 28.672 36.624 28.6211 36.1023C28.5703 35.5807 28.5274 34.5374 28.4767 33.9071C28.39 32.8281 28.1662 32.6405 28.1582 32.1077C28.1525 31.7293 28.569 31.4565 28.7065 31.3049C28.8648 31.1304 29.2316 30.8658 29.6142 30.5339C30.1675 30.0538 30.6481 29.7818 30.8775 29.5168C31.406 28.9058 31.8313 28.325 32.0115 28.0582C32.1323 27.8792 32.5506 27.4038 33.1061 26.7185C33.5022 26.2297 33.8655 25.9288 34.3929 25.4236C34.6271 25.1993 34.8338 24.8608 35.0508 24.528C35.2561 24.213 35.3396 23.9219 35.6997 23.2446C35.8646 22.9346 35.9893 22.6374 36.0977 22.4198C36.1195 22.3762 36.1339 22.3334 36.127 22.3327C35.9393 22.3151 35.6887 22.8782 35.4923 23.1906C35.3714 23.383 35.2686 23.5728 35.1099 23.797C34.9528 24.0188 34.6493 24.3515 34.381 24.785C34.2707 24.9633 34.2288 25.1038 34.2286 25.1759C34.2285 25.2083 34.2855 25.2194 34.3434 25.1767C34.4983 25.0624 34.9178 24.4736 35.5594 23.6592C36.2584 22.772 36.3357 22.3776 36.4442 22.1528C36.5555 21.9223 36.7393 21.6266 37.2941 20.5615C37.6369 19.9033 37.6349 19.6916 37.7506 19.4463C37.8002 19.341 37.8948 19.1724 38.0457 18.8632C38.25 18.4446 38.5435 17.861 38.7744 17.2982C38.9545 16.8591 39.136 16.4011 39.2663 16.1549C39.4987 15.716 39.5838 15.1877 39.6492 14.964C39.7493 14.6216 39.7864 14.1777 39.8295 13.996C39.8487 13.9154 40.016 14.5047 40.3611 15.2533C40.9927 16.623 41.3732 16.7164 41.5614 16.8751C41.7341 17.0208 41.7925 17.2214 41.9081 17.402C42.0336 17.598 42.1242 17.7844 42.2905 17.8576C42.4105 17.9104 42.3849 17.5696 42.4135 17.4754C42.509 17.1607 42.7019 18.2166 42.7816 18.5275C42.8837 18.9259 42.9765 19.3573 43.0271 20.2962C43.0692 21.0746 43.0345 22.5906 43.0274 23.3996C43.0181 24.4539 42.9626 24.8288 42.9407 25.096C42.9211 25.3365 42.876 25.5936 42.8541 25.9043C42.8362 26.1589 42.7894 26.4459 42.7173 26.691C42.5974 27.0986 42.501 27.3553 42.4284 27.6006C42.3264 27.9456 42.1545 28.4666 42.0605 28.87C41.9127 29.5045 41.75 29.7805 41.685 29.9611C41.5901 30.2252 41.4183 30.4734 41.2596 30.7043C41.0504 31.0085 40.87 31.253 40.6823 31.5628C40.4464 31.9521 40.2065 32.3201 39.925 32.8463C39.3972 33.833 39.2382 33.9813 39.0654 34.2698C38.9288 34.4978 38.8198 34.7029 38.7042 34.8982C38.5786 35.1104 38.4586 35.2663 38.4368 35.3888C38.4277 35.4396 38.4864 35.4685 38.5442 35.4475C39.0084 35.2789 39.1654 34.5608 39.3023 34.3726C39.4324 34.1937 39.5838 33.9978 39.836 33.594C40.0937 33.1815 40.4638 32.3824 40.5729 32.0776C40.657 31.8425 40.7531 31.6159 40.8328 31.3487C40.8524 31.2827 40.883 31.2261 40.8977 31.1538C40.9294 30.9982 40.3265 31.479 39.3744 32.3809C38.6992 33.0204 38.1005 33.259 37.5457 33.497C37.2959 33.6041 37.091 33.6349 36.2233 33.7141C35.3557 33.7934 33.8265 33.9077 32.9101 33.9952C31.7329 34.1076 31.3142 34.213 30.9617 34.2561C30.5349 34.3083 30.2164 34.372 30.0579 34.3434C29.9809 34.3295 29.9279 34.2576 29.8913 34.1996C29.7037 33.9021 29.9115 33.3343 30.1133 32.7726C30.3411 32.1387 30.7906 31.4877 31.1943 30.9975C31.4679 30.6652 31.7443 30.4466 32.1966 30.009C32.5182 29.6978 32.9777 29.1569 33.3635 28.6487C33.7494 28.1405 34.0352 27.6689 34.2897 27.1615C34.5441 26.6542 34.7585 26.1254 34.8975 25.7458C35.2146 24.8798 35.1811 24.6001 35.2749 24.3688C35.3737 24.1252 35.4843 23.8639 35.6499 23.4888C35.7587 23.2425 36.0456 22.7266 36.206 22.3334C36.3016 22.0991 36.3937 21.8864 36.4659 21.6405C36.564 21.3056 36.9992 20.9917 37.2735 20.6736C37.4276 20.495 37.6484 20.2265 37.9866 19.9097C38.3483 19.5709 38.8883 19.2594 39.4432 18.971C39.8285 18.7708 40.1888 18.6522 40.4917 18.5295C40.6056 18.4833 40.6517 18.5067 40.6738 18.5713C40.7322 18.7418 40.6102 19.2538 40.3516 20.1814C40.1989 20.7292 39.9216 21.4092 39.3103 22.5558C38.699 23.7023 37.7415 25.2887 36.8123 26.6204C35.8832 27.9521 35.0114 28.9811 34.1621 30.1829C33.3129 31.3846 32.5125 32.728 32.0645 33.4701C31.6165 34.2122 31.545 34.3122 31.4939 34.3852C31.4428 34.4582 31.4143 34.501 33.1145 32.6795C34.8148 30.858 38.2447 27.1708 40.0474 25.2142C41.85 23.2576 41.9215 23.1432 42.0369 22.8842C42.1523 22.6253 42.3095 22.2251 42.3834 22.069C42.4572 21.9129 42.4429 22.0129 41.9854 23.0363C41.5278 24.0596 40.6275 26.0033 40.1136 27.1403C39.4809 28.5405 39.3824 28.9144 39.3464 29.0729C39.2962 29.2028 39.2525 29.3332 39.2094 29.5057C39.1806 29.6069 39.1377 29.7355 39.0069 29.9113" stroke="black" stroke-width="3" stroke-linecap="round"/>
<path d="M25.2785 30.6476C25.2071 30.59 24.9477 30.5038 24.7595 30.4313C24.6731 30.4025 24.5717 30.3735 24.5066 30.3447C24.4986 30.3302 24.5414 30.3159 24.6289 30.3011" stroke="black" stroke-linecap="round"/>
<circle cx="38.0002" cy="17" r="1.5" fill="white"/>
</svg>
